<svg xmlns="http://www.w3.org/2000/svg" width="40" height="40" viewBox="0 0 40 40">
  <path fill="#FFFFFF" fill-rule="evenodd" d="M16.828821,39.7499899 C7.29011809,38.2303804 0,29.9665394 0,20 C0,8.954305 8.954305,0 20,0 C31.045695,0 40,8.954305 40,20 C40,29.9796896 32.6906316,38.2521847 23.1334103,39.7559697 L23.1334103,25.7599386 L27.7967191,25.7599386 L28.6896063,20.0155558 L23.1334103,20.0155558 L23.1334103,16.3196041 C23.1334103,14.5873544 24.0789924,13.3400256 25.6517554,13.1688895 C26.4760727,13.0791936 27.5743282,13.0639952 28.946522,13.1232942 L28.946522,8.28125 C25.2584286,7.46170039 22.4035323,7.58414773 20.381833,8.64859202 C17.6489094,10.0875028 16.828821,13.1232942 16.828821,14.36207 L16.828821,20.0155558 L11.796875,20.0155558 L11.796875,25.7599386 L16.828821,25.7599386 L16.828821,39.7499899 L16.828821,39.7499899 Z"/>
</svg>
