<svg xmlns="http://www.w3.org/2000/svg" width="40" height="40" viewBox="0 0 40 40">
  <path fill="#FFFFFF" fill-rule="evenodd" d="M20,40 C8.954305,40 0,31.045695 0,20 C0,8.954305 8.954305,0 20,0 C31.045695,0 40,8.954305 40,20 C40,31.045695 31.045695,40 20,40 Z M19.9966202,9.22555246 C17.0695108,9.22555246 16.7024777,9.23795945 15.5529055,9.29041109 C14.4057292,9.34273437 13.6222489,9.52494606 12.9366983,9.79139695 C12.2279594,10.0667894 11.6269048,10.4353199 11.0276897,11.0344922 C10.4285175,11.6337072 10.059987,12.2347619 9.78459449,12.9435007 C9.5181436,13.6290513 9.33593192,14.4125316 9.28360863,15.559708 C9.23115699,16.7092801 9.21875,17.0763132 9.21875,20.0034226 C9.21875,22.9304892 9.23115699,23.2975223 9.28360863,24.4470945 C9.33593192,25.5942708 9.5181436,26.3777511 9.78459449,27.0633017 C10.059987,27.7720406 10.4285175,28.3730952 11.0276897,28.9723103 C11.6269048,29.5714825 12.2279594,29.940013 12.9366983,30.2154483 C13.6222489,30.4818564 14.4057292,30.6640681 15.5529055,30.7163914 C16.7024777,30.768843 17.0695108,30.78125 19.9966202,30.78125 C22.9236868,30.78125 23.2907199,30.768843 24.440292,30.7163914 C25.5874684,30.6640681 26.3709487,30.4818564 27.0564993,30.2154483 C27.7652381,29.940013 28.3662928,29.5714825 28.9655078,28.9723103 C29.5646801,28.3730952 29.9332106,27.7720406 30.2086458,27.0633017 C30.4750539,26.3777511 30.6572656,25.5942708 30.7095889,24.4470945 C30.7620406,23.2975223 30.7744475,22.9304892 30.7744475,20.0034226 C30.7744475,17.0763132 30.7620406,16.7092801 30.7095889,15.559708 C30.6572656,14.4125316 30.4750539,13.6290513 30.2086458,12.9435007 C29.9332106,12.2347619 29.5646801,11.6337072 28.9655078,11.0344922 C28.3662928,10.4353199 27.7652381,10.0667894 27.0564993,9.79139695 C26.3709487,9.52494606 25.5874684,9.34273437 24.440292,9.29041109 C23.2907199,9.23795945 22.9236868,9.22555246 19.9966202,9.22555246 Z M19.9966202,11.1675037 C22.874401,11.1675037 23.2152939,11.1784989 24.3517746,11.2303516 C25.4026042,11.2782682 25.9732831,11.4538486 26.3530655,11.601449 C26.8561477,11.7969661 27.2151804,12.0305171 27.5923103,12.4076897 C27.9694829,12.7848196 28.2030339,13.1438523 28.398551,13.6469345 C28.5461514,14.0267169 28.7217318,14.5973958 28.7696484,15.6482254 C28.8215011,16.7847061 28.8324963,17.125599 28.8324963,20.0034226 C28.8324963,22.8812035 28.8215011,23.2220964 28.7696484,24.358577 C28.7217318,25.4094066 28.5461514,25.9800856 28.398551,26.3598679 C28.2030339,26.8629501 27.9694829,27.2219829 27.5923103,27.5991127 C27.2151804,27.9762853 26.8561477,28.2098363 26.3530655,28.4053534 C25.9732831,28.5529539 25.4026042,28.7285342 24.3517746,28.7764509 C23.215465,28.8283036 22.874615,28.8392987 19.9966202,28.8392987 C17.1185826,28.8392987 16.7777753,28.8283036 15.641423,28.7764509 C14.5905934,28.7285342 14.0199144,28.5529539 13.6401321,28.4053534 C13.1370499,28.2098363 12.7780171,27.9762853 12.4008873,27.5991127 C12.0237574,27.2219829 11.7901637,26.8629501 11.5946466,26.3598679 C11.4470461,25.9800856 11.2714658,25.4094066 11.2235491,24.358577 C11.1716964,23.2220964 11.1607013,22.8812035 11.1607013,20.0034226 C11.1607013,17.125599 11.1716964,16.7847061 11.2235491,15.6482254 C11.2714658,14.5973958 11.4470461,14.0267169 11.5946466,13.6469345 C11.7901637,13.1438523 12.0237147,12.7848196 12.4008873,12.4076897 C12.7780171,12.0305171 13.1370499,11.7969661 13.6401321,11.601449 C14.0199144,11.4538486 14.5905934,11.2782682 15.641423,11.2303516 C16.7779036,11.1784989 17.1187965,11.1675037 19.9966202,11.1675037 Z M19.9966202,23.5960175 C18.0124423,23.5960175 16.4039825,21.9875577 16.4039825,20.0034226 C16.4039825,18.0192448 18.0124423,16.410785 19.9966202,16.410785 C21.9807552,16.410785 23.589215,18.0192448 23.589215,20.0034226 C23.589215,21.9875577 21.9807552,23.5960175 19.9966202,23.5960175 Z M19.9966202,14.4688337 C16.9399219,14.4688337 14.4620312,16.9467243 14.4620312,20.0034226 C14.4620312,23.0600781 16.9399219,25.5379688 19.9966202,25.5379688 C23.0532757,25.5379688 25.5311663,23.0600781 25.5311663,20.0034226 C25.5311663,16.9467243 23.0532757,14.4688337 19.9966202,14.4688337 Z M27.0431938,14.2501711 C27.0431938,13.5358705 26.4641295,12.9568062 25.7498289,12.9568062 C25.0355711,12.9568062 24.4565067,13.5358705 24.4565067,14.2501711 C24.4565067,14.9644717 25.0355711,15.5434933 25.7498289,15.5434933 C26.4641295,15.5434933 27.0431938,14.9644717 27.0431938,14.2501711 Z"/>
</svg>
